HIERARCHY
ROOT root
{
	OFFSET	0	13.1	24.9
	CHANNELS 6  Xposition Yposition Zposition Xrotation Yrotation Zrotation
	JOINT spine_1
	{
		OFFSET	0	9.99999	0
		CHANNELS 3  Xrotation Yrotation Zrotation
		JOINT spine_2
		{
			OFFSET	0	112	-10
			CHANNELS 3  Xrotation Yrotation Zrotation
			JOINT spine_3
			{
				OFFSET	0	206.5	19.3
				CHANNELS 3  Xrotation Yrotation Zrotation
				JOINT spine_4
				{
					OFFSET	0	110.4	14.6
					CHANNELS 3  Xrotation Yrotation Zrotation
					JOINT neck_1
					{
						OFFSET	0	71.8	-50.3
						CHANNELS 3  Xrotation Yrotation Zrotation
						JOINT neck_2
						{
							OFFSET	0	86.2	-25.8
							CHANNELS 3  Xrotation Yrotation Zrotation
							JOINT head_ee
							{
								OFFSET	0	179.8	-8.7
								CHANNELS 3  Xrotation Yrotation Zrotation
								End Site
								{
									OFFSET	1	0	0
								}
							}
						}
					}
					JOINT left_clavicle
					{
						OFFSET	-43.2	22.4	-70.8
						CHANNELS 3  Xrotation Yrotation Zrotation
						JOINT left_shoulder
						{
							OFFSET	-93.9	-5.79999	48.7
							CHANNELS 3  Xrotation Yrotation Zrotation
							JOINT left_elbow
							{
								OFFSET	-291.4	-30.8	15.2
								CHANNELS 3  Xrotation Yrotation Zrotation
								JOINT left_lowarm_twist
								{
									OFFSET	-110.7	-3.89999	13.6
									CHANNELS 3  Xrotation Yrotation Zrotation
									JOINT left_hand
									{
										OFFSET	-110.7	-3.89999	13.6
										CHANNELS 3  Xrotation Yrotation Zrotation
										JOINT left_ee
										{
											OFFSET	-80.8	-5.10001	12.1
											CHANNELS 3  Xrotation Yrotation Zrotation
											End Site
											{
												OFFSET	1	0	0
											}
										}
									}
								}
							}
						}
					}
					JOINT right_clavicle
					{
						OFFSET	43.2	22.4	-70.8
						CHANNELS 3  Xrotation Yrotation Zrotation
						JOINT right_shoulder
						{
							OFFSET	93.9	-5.79999	48.7
							CHANNELS 3  Xrotation Yrotation Zrotation
							JOINT right_elbow
							{
								OFFSET	291.4	-30.8	15.2
								CHANNELS 3  Xrotation Yrotation Zrotation
								JOINT right_lowarm_twist
								{
									OFFSET	110.7	-3.89999	13.6
									CHANNELS 3  Xrotation Yrotation Zrotation
									JOINT right_hand
									{
										OFFSET	110.7	-3.89999	13.6
										CHANNELS 3  Xrotation Yrotation Zrotation
										JOINT right_ee
										{
											OFFSET	80.8	-5.10001	12.1
											CHANNELS 3  Xrotation Yrotation Zrotation
											End Site
											{
												OFFSET	1	0	0
											}
										}
									}
								}
							}
						}
					}
				}
			}
		}
	}
	JOINT left_hip
	{
		OFFSET	-82.8	-127.5	0.300001
		CHANNELS 3  Xrotation Yrotation Zrotation
		JOINT left_knee
		{
			OFFSET	-28.2	-396.7	2.2
			CHANNELS 3  Xrotation Yrotation Zrotation
			JOINT left_ankle
			{
				OFFSET	-11.7	-411.3	35.4
				CHANNELS 3  Xrotation Yrotation Zrotation
				JOINT left_toes
				{
					OFFSET	0	-60	-88.6
					CHANNELS 3  Xrotation Yrotation Zrotation
					JOINT left_foot_ee
					{
						OFFSET	-22.5	-16.5	-42.2
						CHANNELS 3  Xrotation Yrotation Zrotation
						End Site
						{
							OFFSET	1	0	0
						}
					}
				}
			}
		}
	}
	JOINT right_hip
	{
		OFFSET	82.8	-127.5	0.300001
		CHANNELS 3  Xrotation Yrotation Zrotation
		JOINT right_knee
		{
			OFFSET	28.2	-396.7	2.2
			CHANNELS 3  Xrotation Yrotation Zrotation
			JOINT right_ankle
			{
				OFFSET	11.7	-411.3	35.4
				CHANNELS 3  Xrotation Yrotation Zrotation
				JOINT right_toes
				{
					OFFSET	0	-60	-88.6
					CHANNELS 3  Xrotation Yrotation Zrotation
					JOINT right_foot_ee
					{
						OFFSET	22.5	-16.5	-42.2
						CHANNELS 3  Xrotation Yrotation Zrotation
						End Site
						{
							OFFSET	1	0	0
						}
					}
				}
			}
		}
	}
}
MOTION
Frames: 9
Frame Time: 0.02
2293.72 754.547 -1525.35 14.2076 65.803 -20.1397 -1.60098 0.874493 4.64862 -1.58915 0.577252 4.6947 -1.5299 -0.548552 4.69813 -1.56063 0.199458 4.72578 -16.4437 17.4437 -9.71133 -18.0669 38.8678 -2.14923 -0.0 0.0 -0.0 -3.27574 23.3328 -1.8017 -10.8367 -13.6715 64.9272 0.964102 -25.5281 0.218408 3.50151 0.110143 -0.433613 0.923629 5.2807 8.29619 -0.0 0.0 -0.0 12.8495 20.1453 -25.8849 -4.08121 31.4021 -63.0002 1.54 37.3364 -0.520339 39.0785 0.3022 4.88741 1.26107 -24.4915 -17.1414 0.0 0.0 0.0 -5.10787 11.1302 4.2634 -29.1077 0.0772076 4.41851 24.2066 18.1397 -3.3032 -33.3806 0.0 0.0 -0.0 0.0 -0.0 -1.13266 11.813 -1.94467 3.60682 0.165244 0.528655 -1.64316 10.6026 -0.255404 -15.1371 0.0 0.0 0.0 0.0 0.0 
2285.57 756.486 -1522.51 13.1652 64.9102 -19.0909 -1.585 1.04085 4.67156 -1.57317 0.741817 4.72815 -1.49947 -0.393474 4.76969 -1.53102 0.363866 4.77204 -16.5396 17.1231 -10.3195 -18.1074 38.5873 -2.84146 -0.0 0.0 -0.0 -2.96722 23.0641 -1.42888 -11.6267 -13.6748 64.9249 0.849307 -22.8174 0.171387 3.6599 0.114497 -0.453377 1.00966 5.77094 9.05869 -0.0 0.0 -0.0 12.8251 19.8727 -25.8477 -3.03387 30.8354 -63.3851 1.42911 35.294 -0.454652 37.9726 0.248033 4.75678 1.17198 -23.7139 -16.374 0.0 0.0 0.0 -3.62466 11.2486 3.81103 -29.1608 0.0752944 4.42644 22.1339 19.0423 -3.05955 -33.3186 0.0 0.0 -0.0 0.0 -0.0 -1.61269 11.2283 -1.52749 3.46738 0.158238 0.508413 1.5836 11.442 0.245332 -12.7681 0.0 0.0 0.0 0.0 0.0 
2280.75 754.404 -1521.02 13.3367 66.5586 -19.086 -1.39289 0.810482 4.49957 -1.38178 0.522824 4.5419 -1.32988 -0.549529 4.53875 -1.35857 0.173405 4.56855 -17.3974 17.2827 -10.5997 -19.1758 38.9373 -2.66862 -0.0 0.0 -0.0 -3.12069 23.0766 -1.63937 -11.408 -13.4525 65.4341 0.844959 -22.7124 0.169705 3.8558 0.119805 -0.477838 1.03583 5.97427 9.31137 -0.0 0.0 -0.0 12.5321 20.5146 -25.1222 -2.19901 30.9539 -63.6208 1.44058 35.5102 -0.461296 39.5848 0.327842 4.94687 1.49371 -21.0889 -17.5487 0.0 0.0 0.0 -2.77047 11.3574 3.03403 -25.7959 0.182 3.92113 23.4973 19.9683 -3.23946 -32.3677 0.0 0.0 -0.0 0.0 -0.0 -1.28757 11.6466 -1.48902 3.14828 0.142391 0.462026 -0.285085 12.1006 -0.0445786 -13.1815 0.0 0.0 0.0 0.0 0.0 
2274.04 748.941 -1524.4 13.768 66.8683 -19.2672 -1.38113 0.845034 4.39143 -1.37058 0.564166 4.43617 -1.31683 -0.483498 4.44567 -1.34433 0.223958 4.46623 -16.5868 16.8323 -7.79248 -18.0913 36.621 -0.60701 -0.0 0.0 -0.0 -3.45213 23.4175 -2.0275 -11.6686 -13.2362 65.2319 0.888105 -23.7464 0.186723 4.51453 0.137043 -0.560218 0.847972 7.07518 8.49712 -0.0 0.0 -0.0 12.5988 19.9647 -25.3166 -2.52222 31.2163 -63.4655 1.47548 36.1612 -0.481734 38.4364 0.270442 4.81169 1.23998 -22.71 -16.4798 0.0 0.0 0.0 -2.2239 8.3024 2.10447 -22.3465 0.260388 3.39767 23.9247 17.1957 -3.25879 -33.4348 0.0 0.0 -0.0 0.0 -0.0 -2.38906 12.9844 -1.23248 3.92958 0.181651 0.575448 -0.817758 14.9154 -0.13061 -15.3725 0.0 0.0 0.0 0.0 0.0 
2266.81 749.492 -1526.49 13.5276 66.383 -19.1251 -1.47754 0.767721 4.52022 -1.46631 0.478838 4.5598 -1.41752 -0.603588 4.545 -1.44631 0.121003 4.58323 -17.0919 17.7708 -8.07296 -18.9106 38.5219 -0.18812 -0.0 0.0 -0.0 -3.54109 22.9993 -2.24004 -10.8385 -13.7633 65.8634 0.743958 -20.2306 0.132726 4.34979 0.132821 -0.539598 0.96112 6.77848 9.12838 -0.0 0.0 -0.0 12.7061 20.0531 -25.5588 -1.67312 31.8243 -64.2357 1.44568 35.6061 -0.464265 38.5349 0.275262 4.82334 1.42387 -22.5944 -17.5682 0.0 0.0 0.0 -0.867053 10.3409 1.11412 -20.9854 0.282624 3.19 23.5757 17.479 -3.21953 -33.0771 0.0 0.0 -0.0 0.0 -0.0 -3.32446 12.763 -1.50541 4.36034 0.203959 0.637753 1.94559 15.9037 0.31073 -12.7827 0.0 0.0 0.0 0.0 0.0 
2265.68 754.627 -1524.07 11.8354 66.0515 -17.1384 -1.28781 0.717395 4.50079 -1.27664 0.429846 4.53722 -1.23273 -0.631472 4.51362 -1.26113 0.0885283 4.55663 -16.1362 17.5455 -8.32094 -17.7139 38.3104 -0.926954 -0.0 0.0 -0.0 -3.60277 23.1513 -2.29309 -10.6092 -13.6818 66.5128 0.730681 -19.8981 0.128171 5.04306 0.150187 -0.626454 0.873255 7.46198 8.81352 -0.0 0.0 -0.0 12.5112 20.1506 -25.1006 -1.52726 31.9831 -64.6497 1.47571 36.1655 -0.481869 39.0379 0.300168 4.88263 1.77919 -19.7044 -18.9303 0.0 0.0 0.0 -0.793357 9.70456 0.685422 -15.5205 0.322087 2.35274 23.3435 12.6696 -3.1528 -31.7379 0.0 0.0 -0.0 0.0 -0.0 -3.18694 12.8168 -1.3421 5.51787 0.266225 0.804348 0.295947 16.7728 0.0478214 -13.8064 0.0 0.0 0.0 0.0 0.0 
2263.39 755.719 -1520.75 10.7729 65.59 -15.8585 -1.35286 0.851997 4.47696 -1.34189 0.565689 4.52198 -1.28689 -0.499654 4.52973 -1.31544 0.221239 4.55179 -16.0583 17.2176 -8.39355 -17.5508 37.7337 -1.18685 -0.0 0.0 -0.0 -3.59751 23.2609 -2.26207 -11.029 -14.4993 66.395 0.824896 -22.2262 0.162037 5.78693 0.16765 -0.719872 0.852045 7.39092 8.64647 -0.0 0.0 -0.0 12.3845 20.65 -24.7712 -1.43765 32.1363 -64.331 1.43691 35.4412 -0.459168 40.1635 0.357795 5.01455 1.81033 -16.2182 -18.0557 0.0 0.0 0.0 -0.649417 8.99251 0.525426 -13.4522 0.316172 2.03549 23.981 7.75697 -3.21223 -31.8973 0.0 0.0 -0.0 0.0 -0.0 -3.11054 13.5455 -1.44153 6.70774 0.333735 0.974279 -1.18385 16.6764 -0.191899 -15.578 0.0 0.0 0.0 0.0 0.0 
2259.07 754.216 -1520.64 9.99806 65.3613 -15.0509 -1.41082 0.907407 4.38008 -1.40037 0.627133 4.42881 -1.34161 -0.422284 4.45297 -1.36916 0.285557 4.4638 -15.663 17.6182 -7.92799 -17.1584 38.261 -0.719866 -0.0 0.0 -0.0 -3.81099 22.9862 -2.61926 -9.61107 -13.6312 67.0579 0.770754 -20.8972 0.142138 6.12453 0.175174 -0.762341 0.806442 8.4548 8.75829 -0.0 0.0 -0.0 12.2815 20.913 -24.5135 -1.34008 32.3555 -64.3869 1.47442 36.1415 -0.481103 39.1574 0.306163 4.89669 2.07738 -16.6701 -19.9444 0.0 0.0 0.0 -0.310856 9.47633 0.169267 -11.3189 0.29808 1.70868 21.1459 9.02223 -2.87349 -31.9594 0.0 0.0 -0.0 0.0 -0.0 -3.00213 14.844 -1.1695 6.0613 0.296619 0.882129 -1.68869 19.2883 -0.280376 -14.1662 0.0 0.0 0.0 0.0 0.0 
2255.17 754.131 -1516.25 8.25896 63.9384 -13.0775 -1.44819 0.882842 4.3562 -1.43784 0.604132 4.40342 -1.38118 -0.441849 4.42262 -1.40837 0.261457 4.43691 -16.9892 17.6126 -9.20609 -18.7618 38.8517 -1.36413 -0.0 0.0 -0.0 -3.44547 22.9067 -2.12643 -9.94562 -13.9981 66.9871 0.805665 -21.757 0.154836 6.96938 0.192907 -0.868806 0.956417 9.35984 10.085 -0.0 0.0 -0.0 12.2607 21.3387 -24.4319 -1.61714 32.603 -64.185 1.48192 36.2801 -0.485537 39.3815 0.317482 4.92302 2.14715 -14.538 -19.7416 0.0 0.0 0.0 -0.380039 8.24136 0.243052 -9.81003 0.277941 1.47804 22.3049 4.92893 -3.0141 -31.643 0.0 0.0 -0.0 0.0 -0.0 -2.17498 14.4091 -1.57772 6.02308 0.294457 0.876669 -3.13245 17.7511 -0.514824 -15.5323 0.0 0.0 0.0 0.0 0.0 
